<svg xmlns="http://www.w3.org/2000/svg" viewBox="0 0 511.9 78.2" fill="#fff"><path d="M273.4 40.8c0-7-3.9-9.8-10.1-9.8-2.5 0-4.9.1-6.5.1v20c1.7.1 3.5.1 5.6.1 6.5 0 11-3.6 11-10.4zm-4.5.3c0 4.7-2.8 6.2-6.1 6.2-.8 0-1.2 0-1.7-.1V35h1.9c4.3-.1 5.9 1.8 5.9 6.1zM315.6 51.1v-4.2h-7.7l7.6-12v-3.8h-13.3V35h7.8l-8.1 12.5v3.6h13.3zM369.1 43.3V31h-4.9v11.7c0 2.9-.5 4.6-3.3 4.6-2.7 0-3.3-1.3-3.3-4.4V31h-5v13c0 4.6 2.4 7.4 8.1 7.4 5.9 0 8.4-3.6 8.4-8.1zM398 31h-4.3l-2.5 10.1c-.3 1.2-.6 2.8-.9 4.1h-.1c-.3-1.4-.6-2.9-.8-4L386.7 31h-4.5l-2.7 10.4c-.3 1.1-.6 2.6-.8 3.8-.2-1.2-.4-2.5-.8-3.8L375.3 31h-4.6l5.1 20.1h4.9l2.5-9.8c.3-1.3.7-3 1-4.4h.1c.3 1.4.6 3.2.9 4.4l2.5 9.8h5.2L398 31zM412.8 44.5c0-6.2-8.2-5-8.2-7.8 0-1.2.9-2.1 3-2.1 1.2 0 2.6.2 3.7.5l.2-4.2c-1.1-.2-2.6-.3-3.7-.3-5.5 0-8.5 2.6-8.5 6.6 0 6.6 8.1 4.9 8.1 7.9 0 1.5-1.4 2.3-3.1 2.3-1.6 0-3.1-.3-4.3-.7l-.1 4.3c1.1.3 2.7.5 3.9.5 5.6 0 9-2.8 9-7zM459.5 51.1l-7.6-10.3 7.3-9.7h-5.9l-6.5 9.1v-9.1h-5v20h5v-9.6l6.4 9.6h5.1zM477.1 43.3V31h-4.3v11.7c0 2.9-1 4.6-3.7 4.6-2.5 0-3.8-1.3-3.8-4.4V31h-4.4v13c0 4.6 2.5 7.4 7.9 7.4 5.9 0 8.3-3.6 8.3-8.1zM494.7 44.5c0-6.2-8.3-5-8.3-7.8 0-1.2.9-2.1 3-2.1 1.2 0 2.6.2 3.7.5l.2-4.2c-1.1-.2-2.6-.3-3.7-.3-5.5 0-8.5 2.6-8.5 6.6 0 6.6 8.1 4.9 8.1 7.9 0 1.5-1.4 2.3-3.1 2.3-1.6 0-3.1-.3-4.3-.7l-.2 4.4c1.1.3 2.7.5 3.9.5 5.8-.1 9.2-2.9 9.2-7.1zM511.9 35.2V31h-15.5v4.2h5.2v15.9h5V35.2zM277.3 51s9.5-.1 12.3-.1V47s-6.4.1-7.3.1v-4.2l7-.1v-3.9s-6.2.1-7 0V35c.6 0 7.3-.1 7.3-.1V31l-12.3.1V51M320.3 51s9.5-.1 12.3-.1V47s-6.4.1-7.3.1v-4.2l7-.1v-3.9s-6.2.1-7 0V35c.6 0 7.3-.1 7.3-.1V31l-12.3.1V51M337.3 51s9.5-.1 12.3-.1V47s-6.4.1-7.3.1v-4.2l7-.1v-3.9s-6.2.1-7 0V35c.6 0 7.3-.1 7.3-.1V31l-12.3.1V51M416.3 51s9.5-.1 12.3-.1V47s-6.4.1-7.3.1v-4.2l7-.1v-3.9s-6.2.1-7 0V35c.6 0 7.3-.1 7.3-.1V31l-12.3.1V51M203.8 0c21.6 0 39.1 17.5 39.1 39.1s-17.5 39.1-39.1 39.1-39.1-17.5-39.1-39.1S182.2 0 203.8 0zm27.1 55.3c.6 1 1.1 2 1.4 3 2-3 3.5-6.2 4.5-9.8-2.1-2.5-5.1-4.3-8.6-5-3.9-.8-8.1-.3-11.6 1.5-1.9 1-3.2 2-4.1 2.8 3.3-.5 6.8-.2 10.1 1 3.6 1.4 6.6 3.7 8.3 6.5zm-34.2-42c-.8-1.5-2.1-2.6-3.8-3.1-1.6-.5-3.3-.3-4.9.5s-2.8 2.2-3.3 4c-.5 1.7-.4 3.6.5 5.1.8 1.5 2.1 2.6 3.8 3.1 3.4 1.1 7.1-.9 8.2-4.4.1-.3.2-.6.2-.9.2-1.5 0-3-.7-4.3zm-17.2 2.5c-4.1 4.3-7.2 9.7-8.6 15.8 2.6-1.5 5.1-2.2 7-2.4 4.2-.6 7.7.2 9.7 1.2 5.6 2.8 9.1 9.1 8.9 16.2-.2 5.2.3 9.2 1.5 12.2 1.1 2.8 2.7 4.8 5.3 6.6 3.4 2.4 6.8 3.6 10.4 3.7 3.2.1 7.1-.2 10.3-2.2s4.5-6 2.6-9c-1.2-1.9-3.2-3.5-5.7-4.4-2.7-1-5.7-1.2-8.4-.6-3.7.9-5.6-.5-6.2-2-.9-2.5 1.2-6.8 8.1-10.4 4.5-2.3 9.9-3 14.9-2 3.3.7 6.2 2.1 8.7 4 .1-1.1.2-2.2.2-3.3 0-18.8-15.3-34.1-34.1-34.1-2.7 0-5.2.3-7.7.9 2 1.1 3.7 2.7 4.8 4.8 1.2 2.3 1.6 4.9 1.2 7.4-.1.5-.2 1-.4 1.5-1.9 6.2-8.4 9.6-14.4 7.8-2.9-.9-5.3-2.9-6.7-5.6-.9-1.7-1.4-3.6-1.4-5.4v-.7zM170 39.4c0 18.8 15.3 34.1 34.1 34.1 1.3 0 2.7-.1 3.9-.2-2.6-.8-5.1-2-7.5-3.7-3.4-2.4-5.7-5.2-7.1-9-1.4-3.6-2-8.3-1.8-14.2.1-5.1-2.3-9.6-6.1-11.5-.9-.5-3.5-1.2-6.8-.7s-6.2 2-8.6 4.5c-.1.2-.1.4-.1.7zM4.7 51.1c-1.6 0-3.1-.2-4.3-.5l.2-3.1c1.2.4 2.9.8 4.5.8 2.4 0 4.3-.9 4.3-3.1 0-4.3-9.4-2.5-9.4-9 0-3.5 2.9-5.9 7.9-5.9 1.3 0 2.6.1 3.9.4l-.2 2.9c-1.2-.4-2.6-.6-3.9-.6-2.7 0-4.1 1.2-4.1 2.9 0 4.1 9.4 2.6 9.4 8.9 0 3.6-3.1 6.3-8.3 6.3zM22.1 51.1c-3.4 0-4.4-1.2-4.4-4.6v-8.2h-3v-2.5h3V31l3.4-.9v5.6h4.2v2.5h-4.1v7.2c0 2.2.5 2.8 2.1 2.8.7 0 1.5-.1 2.1-.2v2.7c-1.1.2-2.3.4-3.3.4zM37 38.7c-3.2-.5-4.7 1.5-4.7 6v6.1h-3.4v-15h3.3c0 .8-.1 2.2-.3 3.3h.1c.7-2 2.3-3.9 5.3-3.6l-.3 3.2zM48.1 50.8c0-1 0-2 .2-2.8-.8 1.8-2.7 3.1-5.3 3.1-2.7 0-4.4-1.4-4.4-3.8 0-3.4 3.6-5.4 9.4-5.4v-1c0-1.9-.8-2.8-3.3-2.8-1.5 0-3.4.4-4.7 1.2l-.3-2.7c1.6-.6 3.5-1 5.6-1 4.8 0 6.2 2 6.2 5.1v6.1c0 1.3 0 2.8.1 4.1h-3.5v-.1zm-.2-6.8c-5 0-6.1 1.4-6.1 2.7 0 1.1.8 1.8 2.2 1.8 2.3 0 3.9-2.1 3.9-4.3V44zM66.2 50.8v-9.6c0-1.9-.5-3-2.4-3-2.4 0-4.1 2.4-4.1 5.4v7.2h-3.4v-15h3.3c0 .8-.1 2.1-.2 2.9.9-1.9 2.8-3.3 5.5-3.3 3.6 0 4.7 2.1 4.7 4.8v10.5h-3.4v.1zM84.2 50.8c0-.8.1-2 .2-2.8h-.1c-.9 1.8-2.7 3.1-5.2 3.1-3.9 0-5.8-2.7-5.8-7.1 0-5.2 3.2-8.5 8.3-8.5.8 0 1.5.1 2.4.1v-6.9h3.4v22l-3.2.1zM84 38.4c-.9-.2-1.7-.3-2.5-.3-2.7 0-4.6 1.6-4.6 5.6 0 3 1 4.7 3.2 4.7 2.5 0 3.9-2.8 3.9-5.4v-4.6zM98.2 51c-.9 0-1.6 0-2.4-.2v7.3h-3.4V35.8h3.2c0 .8 0 2-.2 2.8h.1c.9-1.9 2.7-3.1 5.1-3.1 3.8 0 5.8 2.5 5.8 7 .1 5.3-2.9 8.5-8.2 8.5zm1.5-12.8c-2.6 0-3.9 2.8-3.9 5.4v4.6c.7.2 1.5.3 2.5.3 2.7 0 4.6-1.6 4.6-5.6 0-3.1-1-4.7-3.2-4.7zM118.7 50.8c0-1 0-2 .2-2.8-.8 1.8-2.7 3.1-5.3 3.1-2.7 0-4.4-1.4-4.4-3.8 0-3.4 3.6-5.4 9.4-5.4v-1c0-1.9-.8-2.8-3.3-2.8-1.5 0-3.4.4-4.7 1.2l-.3-2.7c1.6-.6 3.5-1 5.6-1 4.8 0 6.2 2 6.2 5.1v6.1c0 1.3 0 2.8.1 4.1h-3.5v-.1zm-.3-6.8c-5 0-6.1 1.4-6.1 2.7 0 1.1.8 1.8 2.2 1.8 2.3 0 3.9-2.1 3.9-4.3V44zM135 38.7c-3.2-.5-4.7 1.5-4.7 6v6.1h-3.4v-15h3.3c0 .8-.1 2.2-.3 3.3h.1c.7-2 2.3-3.9 5.3-3.6l-.3 3.2zM147.1 50.8l-5.4-7.6v7.6h-3.4v-22h3.4v13.4l5.1-6.4h4.2l-5.9 6.8 6.3 8.1h-4.3v.1z"/></svg>